Patient4_TMGait_0pt7_01_right_06_EMG.mot
version=1
nRows=13
nColumns=33
inDegrees=no
endheader
time	1LAddLong	2LGlutMax	3LGlutMed	4LIliopsoas	5LSemiMemb	6LBicFemLong	7LRecFem	8LVastMed	9LVastLat	10LGasMed	11LTibAnt	12lTibPost	13LPeroneusLong	14LSol	15LExtDigLong	16LFlexDigLong	17RAddLong	18RGlutMax	19RGlutMed	20RIliopsoas	21RSemiMemb	22RBicFemLong	23RRecFem	24RVastMed	25RVastLat	26RGasMed	27RTibAnt	28RTibPost	29RPeroneusLong	30RSol	31RExtDigLong	32RFlexDigLong
6.76	-0.016174	-0.12009	-0.19363	0.039215	0.024414	-0.043793	0.79834	0.003357	0.22598	-0.061646	-0.002747	-0.17151	0.014648	-0.62927	0.019836	0.06012	-0.17303	-0.16327	0.17166	0.10468	-0.32898	-0.001068	-0.26291	0.41916	-0.35645	0.019989	0.25818	0.017853	-0.79514	0.12177	-0.002747	-0.016479
6.761	-0.02121	-0.16174	-0.19653	0.029755	0.025024	-0.047302	0.77438	0.000153	0.20874	-0.014801	0.004425	-0.089569	-0.04303	-0.33569	0.015411	-0.003662	-0.13428	-0.087738	0.046844	0.14618	-0.14679	0.21088	-0.53436	-0.56946	-0.052948	0.050812	0.22934	-0.010529	-0.82565	-0.026855	-0.002747	-0.010834
6.762	-0.024109	-0.1651	-0.22354	0.018463	0.028229	-0.056763	0.58151	-0.005798	0.21942	0.030823	-0.005646	-0.030823	-0.13733	0.008545	-0.001373	-0.044708	-0.11063	0.000305	-0.14664	0.1239	0.006561	0.42679	-0.88104	-1.1594	0.10529	0.061493	0.039368	-0.028839	-0.12802	-0.13672	-0.001678	-0.019836
6.763	-0.023956	-0.17151	-0.20264	0.012817	0.030212	-0.057373	0.37735	0.002747	0.18845	0.006866	-0.013123	-0.027161	-0.16754	0.12695	0.001526	-0.033722	-0.065002	0.084839	0.032501	0.026703	0.21683	0.29831	-1.1523	-1.2822	0.14542	0.045471	-0.13092	-0.10132	1.1916	0.11444	0.00885	-0.011444
6.764	-0.028992	-0.22003	-0.17303	-0.00061	0.02594	-0.033112	0.31891	-0.003357	0.18631	-0.003815	-0.043793	-0.019226	-0.093842	0.21072	-0.003662	0.010834	-0.046692	0.1181	0.080414	-0.012665	0.41901	0.33691	-1.1409	-0.90012	0.072174	-0.013733	-0.022888	-0.33386	0.61493	0.26993	-0.002899	-0.009308
6.765	-0.030975	-0.21362	-0.14572	0.000763	0.024872	-0.049744	0.35599	0.004272	0.15839	-0.031586	-0.061188	-0.014954	-0.090179	0.36804	-0.008545	0.010223	-0.023651	0.24048	0.54291	-0.11047	0.22827	0.28458	-0.52841	-0.24674	-0.21927	-0.000916	-0.040131	0.12665	0.16052	0.19257	-0.002441	-0.012817
6.766	-0.026093	-0.25375	-0.11734	0.006866	0.021057	-0.043945	0.31494	0.013428	0.16373	-0.013123	-0.058899	-0.019226	-0.11917	0.27344	-0.02121	0.005493	0.01297	0.089417	0.44723	-0.03891	0.039368	0.29724	-0.057526	-0.20645	-0.52475	0.019226	0.048828	0.21759	0.31082	0.22049	-0.003967	-0.011292
6.767	-0.028839	-0.26947	-0.11734	0.006714	0.024414	-0.022736	0.14313	0.003357	0.14923	-0.010071	-0.032959	-0.014496	-0.081024	0.23712	-0.037231	0.008392	0.01709	0.10223	0.60455	0.04837	-0.17731	0.4158	0.36377	-0.26352	-0.65872	0.006561	0.14618	0.053864	0.28686	0.086823	-0.004883	-0.0177
6.768	-0.026398	-0.26932	-0.12726	-0.000305	0.019073	-0.044403	-0.041504	0	0.12512	-0.006714	0.031128	-0.014343	-0.086975	0.31067	-0.044556	0.018463	0.033417	0.18692	0.53177	0.12558	-0.37766	0.45929	0.50934	-0.13504	-0.63797	0.009003	0.092926	-0.023956	1.0918	-0.00946	-0.001678	-0.020447
6.769	-0.024872	-0.24094	-0.12222	0.009155	0.020447	-0.036011	-0.18662	-0.015259	0.11475	0.014038	0.13473	-0.013885	-0.090332	0.10193	0.028534	0.021057	0.04837	0.18005	0.027924	0.15427	-0.56946	0.33402	0.16678	-0.11871	-0.49408	-0.04303	0.13702	-0.01236	-0.70343	-0.090485	-0.00061	-0.016632
6.77	-0.021362	-0.25284	-0.13046	0.018311	0.011749	-0.046234	-0.17044	-0.023193	0.10666	0.025177	0.12665	-0.018768	-0.087128	0.059357	0.080414	0.016479	0.0354	0.002594	-0.57312	0.085297	-0.47531	0.41748	-0.52383	-0.18616	-0.25864	-0.062714	0.18616	0.060577	-0.77927	-0.23453	-0.00061	-0.011902
6.771	-0.017242	-0.3122	-0.12314	-0.002594	0.022278	-0.050354	0.000916	-0.02121	0.08194	0.028839	0.029297	-0.008087	-0.086975	0.10162	0.14328	0.017395	0.052338	-0.16419	-0.61142	-0.075378	0.00473	0.54688	-0.53131	-0.24765	-0.10696	-0.019836	-0.018768	0.016022	-0.94269	-0.25436	-0.001831	-0.003662
6.772	-0.00412	-0.3241	-0.06073	0.012207	0.032806	-0.046997	0.11337	-0.023651	0.067291	0.023804	-0.057983	-0.013885	-0.073547	-0.045776	0.15213	0.014343	0.005188	-0.32471	-0.55161	-0.14587	0.56656	0.36148	-0.012207	-0.13657	-0.15335	0.002747	0.068359	-0.019531	0.6572	-0.060577	-0.001373	-0.001526
